<svg width="342" height="305" viewBox="0 0 342 305" fill="none" xmlns="http://www.w3.org/2000/svg">
<circle cx="2.08235" cy="2.08235" r="2.08235" fill="#FF2E2E"/>
<circle cx="27.0706" cy="2.08235" r="2.08235" fill="#FF2E2E"/>
<circle cx="52.0589" cy="2.08235" r="2.08235" fill="#FF2E2E"/>
<circle cx="77.0472" cy="2.08235" r="2.08235" fill="#FF2E2E"/>
<circle cx="102.035" cy="2.08235" r="2.08235" fill="#FF2E2E"/>
<circle cx="127.024" cy="2.08235" r="2.08235" fill="#FF2E2E"/>
<circle cx="152.012" cy="2.08235" r="2.08235" fill="#FF2E2E"/>
<circle cx="177" cy="2.08235" r="2.08235" fill="#FF2E2E"/>
<circle cx="201.988" cy="2.08235" r="2.08235" fill="#FF2E2E"/>
<circle cx="226.976" cy="2.08235" r="2.08235" fill="#FF2E2E"/>
<circle cx="251.965" cy="2.08235" r="2.08235" fill="#FF2E2E"/>
<circle cx="276.953" cy="2.08235" r="2.08235" fill="#FF2E2E"/>
<circle cx="301.941" cy="2.08235" r="2.08235" fill="#FF2E2E"/>
<circle cx="326.93" cy="2.08235" r="2.08235" fill="#FF2E2E"/>
<circle cx="2.08235" cy="27.0706" r="2.08235" fill="#FF2E2E"/>
<circle cx="27.0706" cy="27.0706" r="2.08235" fill="#FF2E2E"/>
<circle cx="52.0589" cy="27.0706" r="2.08235" fill="#FF2E2E"/>
<circle cx="77.0472" cy="27.0706" r="2.08235" fill="#FF2E2E"/>
<circle cx="102.035" cy="27.0706" r="2.08235" fill="#FF2E2E"/>
<circle cx="127.024" cy="27.0706" r="2.08235" fill="#FF2E2E"/>
<circle cx="152.012" cy="27.0706" r="2.08235" fill="#FF2E2E"/>
<circle cx="177" cy="27.0706" r="2.08235" fill="#FF2E2E"/>
<circle cx="201.988" cy="27.0706" r="2.08235" fill="#FF2E2E"/>
<circle cx="226.976" cy="27.0706" r="2.08235" fill="#FF2E2E"/>
<circle cx="251.965" cy="27.0706" r="2.08235" fill="#FF2E2E"/>
<circle cx="276.953" cy="27.0706" r="2.08235" fill="#FF2E2E"/>
<circle cx="301.941" cy="27.0706" r="2.08235" fill="#FF2E2E"/>
<circle cx="326.93" cy="27.0706" r="2.08235" fill="#FF2E2E"/>
<circle cx="2.08235" cy="52.0589" r="2.08235" fill="#FF2E2E"/>
<circle cx="27.0706" cy="52.0589" r="2.08235" fill="#FF2E2E"/>
<circle cx="52.0589" cy="52.0589" r="2.08235" fill="#FF2E2E"/>
<circle cx="77.0472" cy="52.0589" r="2.08235" fill="#FF2E2E"/>
<circle cx="102.035" cy="52.0589" r="2.08235" fill="#FF2E2E"/>
<circle cx="127.024" cy="52.0589" r="2.08235" fill="#FF2E2E"/>
<circle cx="152.012" cy="52.0589" r="2.08235" fill="#FF2E2E"/>
<circle cx="177" cy="52.0589" r="2.08235" fill="#FF2E2E"/>
<circle cx="201.988" cy="52.0589" r="2.08235" fill="#FF2E2E"/>
<circle cx="226.976" cy="52.0589" r="2.08235" fill="#FF2E2E"/>
<circle cx="251.965" cy="52.0589" r="2.08235" fill="#FF2E2E"/>
<circle cx="276.953" cy="52.0589" r="2.08235" fill="#FF2E2E"/>
<circle cx="301.941" cy="52.0589" r="2.08235" fill="#FF2E2E"/>
<circle cx="326.93" cy="52.0589" r="2.08235" fill="#FF2E2E"/>
<circle cx="2.08235" cy="77.0472" r="2.08235" fill="#FF2E2E"/>
<circle cx="27.0706" cy="77.0472" r="2.08235" fill="#FF2E2E"/>
<circle cx="52.0589" cy="77.0472" r="2.08235" fill="#FF2E2E"/>
<circle cx="77.0472" cy="77.0472" r="2.08235" fill="#FF2E2E"/>
<circle cx="102.035" cy="77.0472" r="2.08235" fill="#FF2E2E"/>
<circle cx="127.024" cy="77.0472" r="2.08235" fill="#FF2E2E"/>
<circle cx="152.012" cy="77.0472" r="2.08235" fill="#FF2E2E"/>
<circle cx="177" cy="77.0472" r="2.08235" fill="#FF2E2E"/>
<circle cx="201.988" cy="77.0472" r="2.08235" fill="#FF2E2E"/>
<circle cx="226.976" cy="77.0472" r="2.08235" fill="#FF2E2E"/>
<circle cx="251.965" cy="77.0472" r="2.08235" fill="#FF2E2E"/>
<circle cx="276.953" cy="77.0472" r="2.08235" fill="#FF2E2E"/>
<circle cx="301.941" cy="77.0472" r="2.08235" fill="#FF2E2E"/>
<circle cx="326.93" cy="77.0472" r="2.08235" fill="#FF2E2E"/>
<circle cx="2.08235" cy="102.035" r="2.08235" fill="#FF2E2E"/>
<circle cx="27.0706" cy="102.035" r="2.08235" fill="#FF2E2E"/>
<circle cx="52.0589" cy="102.035" r="2.08235" fill="#FF2E2E"/>
<circle cx="77.0472" cy="102.035" r="2.08235" fill="#FF2E2E"/>
<circle cx="102.035" cy="102.035" r="2.08235" fill="#FF2E2E"/>
<circle cx="127.024" cy="102.035" r="2.08235" fill="#FF2E2E"/>
<circle cx="152.012" cy="102.035" r="2.08235" fill="#FF2E2E"/>
<circle cx="177" cy="102.035" r="2.08235" fill="#FF2E2E"/>
<circle cx="201.988" cy="102.035" r="2.08235" fill="#FF2E2E"/>
<circle cx="226.976" cy="102.035" r="2.08235" fill="#FF2E2E"/>
<circle cx="251.965" cy="102.035" r="2.08235" fill="#FF2E2E"/>
<circle cx="276.953" cy="102.035" r="2.08235" fill="#FF2E2E"/>
<circle cx="301.941" cy="102.035" r="2.08235" fill="#FF2E2E"/>
<circle cx="326.93" cy="102.035" r="2.08235" fill="#FF2E2E"/>
<circle cx="2.08235" cy="127.024" r="2.08235" fill="#FF2E2E"/>
<circle cx="27.0706" cy="127.024" r="2.08235" fill="#FF2E2E"/>
<circle cx="52.0589" cy="127.024" r="2.08235" fill="#FF2E2E"/>
<circle cx="77.0472" cy="127.024" r="2.08235" fill="#FF2E2E"/>
<circle cx="102.035" cy="127.024" r="2.08235" fill="#FF2E2E"/>
<circle cx="127.024" cy="127.024" r="2.08235" fill="#FF2E2E"/>
<circle cx="152.012" cy="127.024" r="2.08235" fill="#FF2E2E"/>
<circle cx="177" cy="127.024" r="2.08235" fill="#FF2E2E"/>
<circle cx="201.988" cy="127.024" r="2.08235" fill="#FF2E2E"/>
<circle cx="226.976" cy="127.024" r="2.08235" fill="#FF2E2E"/>
<circle cx="251.965" cy="127.024" r="2.08235" fill="#FF2E2E"/>
<circle cx="276.953" cy="127.024" r="2.08235" fill="#FF2E2E"/>
<circle cx="301.941" cy="127.024" r="2.08235" fill="#FF2E2E"/>
<circle cx="326.93" cy="127.024" r="2.08235" fill="#FF2E2E"/>
<circle cx="2.08235" cy="152.012" r="2.08235" fill="#FF2E2E"/>
<circle cx="27.0706" cy="152.012" r="2.08235" fill="#FF2E2E"/>
<circle cx="52.0589" cy="152.012" r="2.08235" fill="#FF2E2E"/>
<circle cx="77.0472" cy="152.012" r="2.08235" fill="#FF2E2E"/>
<circle cx="102.035" cy="152.012" r="2.08235" fill="#FF2E2E"/>
<circle cx="127.024" cy="152.012" r="2.08235" fill="#FF2E2E"/>
<circle cx="152.012" cy="152.012" r="2.08235" fill="#FF2E2E"/>
<circle cx="177" cy="152.012" r="2.08235" fill="#FF2E2E"/>
<circle cx="201.988" cy="152.012" r="2.08235" fill="#FF2E2E"/>
<circle cx="226.976" cy="152.012" r="2.08235" fill="#FF2E2E"/>
<circle cx="251.965" cy="152.012" r="2.08235" fill="#FF2E2E"/>
<circle cx="276.953" cy="152.012" r="2.08235" fill="#FF2E2E"/>
<circle cx="301.941" cy="152.012" r="2.08235" fill="#FF2E2E"/>
<circle cx="326.93" cy="152.012" r="2.08235" fill="#FF2E2E"/>
<circle cx="2.08235" cy="177" r="2.08235" fill="#FF2E2E"/>
<circle cx="27.0706" cy="177" r="2.08235" fill="#FF2E2E"/>
<circle cx="52.0589" cy="177" r="2.08235" fill="#FF2E2E"/>
<circle cx="77.0472" cy="177" r="2.08235" fill="#FF2E2E"/>
<circle cx="102.035" cy="177" r="2.08235" fill="#FF2E2E"/>
<circle cx="127.024" cy="177" r="2.08235" fill="#FF2E2E"/>
<circle cx="152.012" cy="177" r="2.08235" fill="#FF2E2E"/>
<circle cx="177" cy="177" r="2.08235" fill="#FF2E2E"/>
<circle cx="201.988" cy="177" r="2.08235" fill="#FF2E2E"/>
<circle cx="226.976" cy="177" r="2.08235" fill="#FF2E2E"/>
<circle cx="251.965" cy="177" r="2.08235" fill="#FF2E2E"/>
<circle cx="276.953" cy="177" r="2.08235" fill="#FF2E2E"/>
<circle cx="301.941" cy="177" r="2.08235" fill="#FF2E2E"/>
<circle cx="326.93" cy="177" r="2.08235" fill="#FF2E2E"/>
<circle cx="2.08235" cy="201.988" r="2.08235" fill="#FF2E2E"/>
<circle cx="27.0706" cy="201.988" r="2.08235" fill="#FF2E2E"/>
<circle cx="52.0589" cy="201.988" r="2.08235" fill="#FF2E2E"/>
<circle cx="77.0472" cy="201.988" r="2.08235" fill="#FF2E2E"/>
<circle cx="102.035" cy="201.988" r="2.08235" fill="#FF2E2E"/>
<circle cx="127.024" cy="201.988" r="2.08235" fill="#FF2E2E"/>
<circle cx="152.012" cy="201.988" r="2.08235" fill="#FF2E2E"/>
<circle cx="177" cy="201.988" r="2.08235" fill="#FF2E2E"/>
<circle cx="201.988" cy="201.988" r="2.08235" fill="#FF2E2E"/>
<circle cx="226.976" cy="201.988" r="2.08235" fill="#FF2E2E"/>
<circle cx="251.965" cy="201.988" r="2.08235" fill="#FF2E2E"/>
<circle cx="276.953" cy="201.988" r="2.08235" fill="#FF2E2E"/>
<circle cx="301.941" cy="201.988" r="2.08235" fill="#FF2E2E"/>
<circle cx="326.93" cy="201.988" r="2.08235" fill="#FF2E2E"/>
<circle cx="2.08235" cy="226.976" r="2.08235" fill="#FF2E2E"/>
<circle cx="27.0706" cy="226.976" r="2.08235" fill="#FF2E2E"/>
<circle cx="52.0589" cy="226.976" r="2.08235" fill="#FF2E2E"/>
<circle cx="77.0472" cy="226.976" r="2.08235" fill="#FF2E2E"/>
<circle cx="102.035" cy="226.976" r="2.08235" fill="#FF2E2E"/>
<circle cx="127.024" cy="226.976" r="2.08235" fill="#FF2E2E"/>
<circle cx="152.012" cy="226.976" r="2.08235" fill="#FF2E2E"/>
<circle cx="177" cy="226.976" r="2.08235" fill="#FF2E2E"/>
<circle cx="201.988" cy="226.976" r="2.08235" fill="#FF2E2E"/>
<circle cx="226.976" cy="226.976" r="2.08235" fill="#FF2E2E"/>
<circle cx="251.965" cy="226.976" r="2.08235" fill="#FF2E2E"/>
<circle cx="276.953" cy="226.976" r="2.08235" fill="#FF2E2E"/>
<circle cx="301.941" cy="226.976" r="2.08235" fill="#FF2E2E"/>
<circle cx="326.93" cy="226.976" r="2.08235" fill="#FF2E2E"/>
<circle cx="2.08235" cy="251.965" r="2.08235" fill="#FF2E2E"/>
<circle cx="27.0706" cy="251.965" r="2.08235" fill="#FF2E2E"/>
<circle cx="52.0589" cy="251.965" r="2.08235" fill="#FF2E2E"/>
<circle cx="77.0472" cy="251.965" r="2.08235" fill="#FF2E2E"/>
<circle cx="102.035" cy="251.965" r="2.08235" fill="#FF2E2E"/>
<circle cx="127.024" cy="251.965" r="2.08235" fill="#FF2E2E"/>
<circle cx="152.012" cy="251.965" r="2.08235" fill="#FF2E2E"/>
<circle cx="177" cy="251.965" r="2.08235" fill="#FF2E2E"/>
<circle cx="201.988" cy="251.965" r="2.08235" fill="#FF2E2E"/>
<circle cx="226.976" cy="251.965" r="2.08235" fill="#FF2E2E"/>
<circle cx="251.965" cy="251.965" r="2.08235" fill="#FF2E2E"/>
<circle cx="276.953" cy="251.965" r="2.08235" fill="#FF2E2E"/>
<circle cx="301.941" cy="251.965" r="2.08235" fill="#FF2E2E"/>
<circle cx="326.93" cy="251.965" r="2.08235" fill="#FF2E2E"/>
<circle cx="2.08235" cy="276.953" r="2.08235" fill="#FF2E2E"/>
<circle cx="27.0706" cy="276.953" r="2.08235" fill="#FF2E2E"/>
<circle cx="52.0589" cy="276.953" r="2.08235" fill="#FF2E2E"/>
<circle cx="77.0472" cy="276.953" r="2.08235" fill="#FF2E2E"/>
<circle cx="102.035" cy="276.953" r="2.08235" fill="#FF2E2E"/>
<circle cx="127.024" cy="276.953" r="2.08235" fill="#FF2E2E"/>
<circle cx="152.012" cy="276.953" r="2.08235" fill="#FF2E2E"/>
<circle cx="177" cy="276.953" r="2.08235" fill="#FF2E2E"/>
<circle cx="201.988" cy="276.953" r="2.08235" fill="#FF2E2E"/>
<circle cx="226.976" cy="276.953" r="2.08235" fill="#FF2E2E"/>
<circle cx="251.965" cy="276.953" r="2.08235" fill="#FF2E2E"/>
<circle cx="276.953" cy="276.953" r="2.08235" fill="#FF2E2E"/>
<circle cx="301.941" cy="276.953" r="2.08235" fill="#FF2E2E"/>
<circle cx="326.93" cy="276.953" r="2.08235" fill="#FF2E2E"/>
<circle cx="2.08235" cy="301.941" r="2.08235" fill="#FF2E2E"/>
<circle cx="27.0706" cy="301.941" r="2.08235" fill="#FF2E2E"/>
<circle cx="52.0589" cy="301.941" r="2.08235" fill="#FF2E2E"/>
<circle cx="77.0472" cy="301.941" r="2.08235" fill="#FF2E2E"/>
<circle cx="102.035" cy="301.941" r="2.08235" fill="#FF2E2E"/>
<circle cx="127.024" cy="301.941" r="2.08235" fill="#FF2E2E"/>
<circle cx="152.012" cy="301.941" r="2.08235" fill="#FF2E2E"/>
<circle cx="177" cy="301.941" r="2.08235" fill="#FF2E2E"/>
<circle cx="201.988" cy="301.941" r="2.08235" fill="#FF2E2E"/>
<circle cx="226.976" cy="301.941" r="2.08235" fill="#FF2E2E"/>
<circle cx="251.965" cy="301.941" r="2.08235" fill="#FF2E2E"/>
<circle cx="276.953" cy="301.941" r="2.08235" fill="#FF2E2E"/>
<circle cx="301.941" cy="301.941" r="2.08235" fill="#FF2E2E"/>
<circle cx="326.93" cy="301.941" r="2.08235" fill="#FF2E2E"/>
</svg>
